<?xml version="1.0" encoding="UTF-8"?>
<!-- Generated by Pixelmator Pro 3.3.9 -->
<svg width="1080" height="1080" viewBox="0 0 1080 1080" xmlns="http://www.w3.org/2000/svg">
    <g id="Group">
        <path id="Path" fill="#000000" stroke="none" d="M 442.979431 512.125488 C 471.415405 475.363037 473.752716 429.538269 448.199921 409.773071 C 440.278625 403.645813 434.647034 398.175781 424.224274 398.181152 C 401.025299 398.193054 370.06546 415.183167 350.44458 440.549194 L 213.143524 618.054138 C 184.70755 654.816589 182.370239 700.641357 207.923035 720.406616 C 233.4758 740.171814 277.242401 726.392822 305.678345 689.630371 L 442.979431 512.125488 Z"/>
        <path id="path1" fill="#000000" stroke="none" d="M 935.100342 311.013367 C 959.360413 332.345398 946.432068 386.707581 906.22406 432.434631 L 712.082214 653.224487 C 695.596863 671.972595 672.116211 695.302368 654.338989 704.281067 C 628.757385 717.20166 609.665527 709.981506 595.352112 697.395569 C 571.092041 676.063599 584.020447 621.701355 624.228577 575.974243 L 818.370422 355.184387 C 858.578552 309.457336 910.840332 289.681274 935.100342 311.013367 Z"/>
        <path id="path2" fill="#000000" stroke="none" d="M 668.906372 612.517578 L 479.973145 415.499512 C 457.613556 392.183105 420.585663 391.40741 397.269287 413.767029 C 373.952911 436.126587 373.177216 473.15448 395.536835 496.470886 L 584.470093 693.488953 C 606.829712 716.805359 643.857483 717.580994 667.173889 695.221436 C 690.490295 672.861816 691.266052 635.833984 668.906372 612.517578 Z"/>
    </g>
    <path id="Rounded-Rectangle" fill="#000000" fill-rule="evenodd" stroke="none" d="M 51 819 C 51 841.09137 68.908607 859 91 859 L 111 859 C 133.0914 859 151 841.09137 151 819 L 151 212 C 151 189.90863 133.0914 172 111 172 L 91 172 C 68.908607 172 51 189.90863 51 212 Z"/>
    <path id="path3" fill="#000000" fill-rule="evenodd" stroke="none" d="M 51 869 C 51 891.09137 68.908607 909 91 909 L 989 909 C 1011.09137 909 1029 891.09137 1029 869 L 1029 849 C 1029 826.908569 1011.09137 809 989 809 L 91 809 C 68.908607 809 51 826.908569 51 849 Z"/>
</svg>
